<mxfile host="app.diagrams.net" modified="2023-03-10T08:28:13.630Z" agent="5.0 (X11; Linux x86_64) AppleWebKit/537.36 (KHTML, like Gecko) Chrome/110.0.0.0 Safari/537.36" etag="Up1VRxTclto7LKylJmEV" version="21.0.6" type="github">
  <diagram name="Page-1" id="e56a1550-8fbb-45ad-956c-1786394a9013">
    <mxGraphModel dx="880" dy="595" grid="1" gridSize="10" guides="1" tooltips="1" connect="1" arrows="1" fold="1" page="1" pageScale="1" pageWidth="1100" pageHeight="850" background="none" math="0" shadow="0">
      <root>
        <mxCell id="0" />
        <mxCell id="1" parent="0" />
        <mxCell id="NeJCXW5R0uLkIVwSfmuF-5" value="" style="group" vertex="1" connectable="0" parent="1">
          <mxGeometry x="40" y="180" width="260" height="250" as="geometry" />
        </mxCell>
        <mxCell id="NeJCXW5R0uLkIVwSfmuF-3" value="&lt;font style=&quot;font-size: 20px;&quot;&gt;Organizations/Schools&lt;br&gt;&lt;br&gt;&lt;br&gt;&lt;br&gt;&lt;br&gt;&lt;br&gt;&lt;br&gt;&lt;/font&gt;" style="whiteSpace=wrap;html=1;aspect=fixed;" vertex="1" parent="NeJCXW5R0uLkIVwSfmuF-5">
          <mxGeometry width="250.00000000000003" height="250.00000000000003" as="geometry" />
        </mxCell>
        <mxCell id="NeJCXW5R0uLkIVwSfmuF-4" value="" style="group" vertex="1" connectable="0" parent="NeJCXW5R0uLkIVwSfmuF-5">
          <mxGeometry x="84.11764705882352" y="77.20588235294119" width="91.76470588235293" height="117.64705882352942" as="geometry" />
        </mxCell>
        <mxCell id="NeJCXW5R0uLkIVwSfmuF-1" value="Login" style="rounded=0;whiteSpace=wrap;html=1;fillColor=#dae8fc;strokeColor=#6c8ebf;" vertex="1" parent="NeJCXW5R0uLkIVwSfmuF-4">
          <mxGeometry y="73.52941176470588" width="91.76470588235293" height="44.117647058823536" as="geometry" />
        </mxCell>
        <mxCell id="NeJCXW5R0uLkIVwSfmuF-2" value="Sign Up" style="rounded=0;whiteSpace=wrap;html=1;fillColor=#dae8fc;strokeColor=#6c8ebf;" vertex="1" parent="NeJCXW5R0uLkIVwSfmuF-4">
          <mxGeometry width="91.76470588235293" height="44.117647058823536" as="geometry" />
        </mxCell>
        <mxCell id="NeJCXW5R0uLkIVwSfmuF-11" value="" style="edgeStyle=orthogonalEdgeStyle;rounded=0;orthogonalLoop=1;jettySize=auto;html=1;" edge="1" parent="1" source="NeJCXW5R0uLkIVwSfmuF-3" target="NeJCXW5R0uLkIVwSfmuF-10">
          <mxGeometry relative="1" as="geometry" />
        </mxCell>
        <mxCell id="NeJCXW5R0uLkIVwSfmuF-17" value="Parsing the datas into propper fields." style="shape=process;whiteSpace=wrap;html=1;backgroundOutline=1;" vertex="1" parent="1">
          <mxGeometry x="680" y="250" width="120" height="60" as="geometry" />
        </mxCell>
        <mxCell id="NeJCXW5R0uLkIVwSfmuF-18" value="" style="group" vertex="1" connectable="0" parent="1">
          <mxGeometry x="370" y="180" width="250" height="250" as="geometry" />
        </mxCell>
        <mxCell id="NeJCXW5R0uLkIVwSfmuF-10" value="&lt;br&gt;" style="whiteSpace=wrap;html=1;aspect=fixed;" vertex="1" parent="NeJCXW5R0uLkIVwSfmuF-18">
          <mxGeometry width="250" height="250" as="geometry" />
        </mxCell>
        <mxCell id="NeJCXW5R0uLkIVwSfmuF-12" value="Create Users" style="rounded=0;whiteSpace=wrap;html=1;" vertex="1" parent="NeJCXW5R0uLkIVwSfmuF-18">
          <mxGeometry x="10" y="10" width="230" height="30" as="geometry" />
        </mxCell>
        <mxCell id="NeJCXW5R0uLkIVwSfmuF-13" value="&lt;ul&gt;&lt;li&gt;Add user from database or any data storeage source&lt;/li&gt;&lt;/ul&gt;" style="rounded=0;whiteSpace=wrap;html=1;fillColor=#ffe6cc;strokeColor=#d79b00;" vertex="1" parent="NeJCXW5R0uLkIVwSfmuF-18">
          <mxGeometry x="10" y="50" width="230" height="100" as="geometry" />
        </mxCell>
        <mxCell id="NeJCXW5R0uLkIVwSfmuF-14" value="&lt;ul&gt;&lt;li&gt;Add user from csv/exce; or any other file source&lt;/li&gt;&lt;/ul&gt;" style="rounded=0;whiteSpace=wrap;html=1;fillColor=#dae8fc;strokeColor=#6c8ebf;" vertex="1" parent="NeJCXW5R0uLkIVwSfmuF-18">
          <mxGeometry x="10" y="160" width="230" height="80" as="geometry" />
        </mxCell>
        <mxCell id="NeJCXW5R0uLkIVwSfmuF-15" style="edgeStyle=orthogonalEdgeStyle;rounded=0;orthogonalLoop=1;jettySize=auto;html=1;exitX=0.5;exitY=1;exitDx=0;exitDy=0;" edge="1" parent="NeJCXW5R0uLkIVwSfmuF-18" source="NeJCXW5R0uLkIVwSfmuF-12" target="NeJCXW5R0uLkIVwSfmuF-12">
          <mxGeometry relative="1" as="geometry" />
        </mxCell>
        <mxCell id="NeJCXW5R0uLkIVwSfmuF-20" value="" style="edgeStyle=orthogonalEdgeStyle;rounded=0;orthogonalLoop=1;jettySize=auto;html=1;" edge="1" parent="1" source="NeJCXW5R0uLkIVwSfmuF-13" target="NeJCXW5R0uLkIVwSfmuF-17">
          <mxGeometry relative="1" as="geometry" />
        </mxCell>
      </root>
    </mxGraphModel>
  </diagram>
</mxfile>
